<svg width="168" height="32" viewBox="0 0 168 32" fill="none" xmlns="http://www.w3.org/2000/svg">
<mask id="path-1-outside-1_1171_35188" maskUnits="userSpaceOnUse" x="1.78516" y="6.31836" width="165" height="20" fill="black">
<rect fill="white" x="1.78516" y="6.31836" width="165" height="20"/>
<path d="M11.7154 25.6555C6.65781 25.6555 2.54651 21.4898 2.54651 16.5628C2.54651 11.614 6.7122 7.42657 11.6501 7.42657C13.9342 7.4592 15.9572 8.36195 17.7953 10.1348L15.7614 12.9083C14.565 11.7337 13.1293 11.0158 11.6175 11.0158C8.80048 11.0158 6.11399 13.5174 6.11399 16.5846C6.11399 19.7061 8.89836 22.1207 11.6066 22.1207C13.2163 22.1207 14.6085 21.2614 15.7723 20.1194L17.7953 22.969C16.2509 24.5026 14.3692 25.6555 11.7154 25.6555ZM29.5832 25.6555C24.5801 25.6555 20.4796 21.566 20.4796 16.5737C20.4796 11.5379 24.5801 7.42657 29.5941 7.42657C34.6082 7.42657 38.7195 11.5379 38.7195 16.5737C38.7195 21.566 34.6082 25.6555 29.5832 25.6555ZM29.5832 22.088C32.6504 22.088 35.152 19.5973 35.152 16.5519C35.152 13.4848 32.6504 10.9832 29.5832 10.9832C26.5269 10.9832 24.0362 13.4848 24.0362 16.5519C24.0362 19.5973 26.5269 22.088 29.5832 22.088ZM51.6494 25.6555C46.5918 25.6555 42.4805 21.4898 42.4805 16.5628C42.4805 11.614 46.6462 7.42657 51.5841 7.42657C53.8682 7.4592 55.8912 8.36195 57.7293 10.1348L55.6954 12.9083C54.499 11.7337 53.0633 11.0158 51.5515 11.0158C48.7345 11.0158 46.048 13.5174 46.048 16.5846C46.048 19.7061 48.8324 22.1207 51.5406 22.1207C53.1504 22.1207 54.5425 21.2614 55.7063 20.1194L57.7293 22.969C56.1849 24.5026 54.3033 25.6555 51.6494 25.6555ZM69.5173 25.6555C64.5141 25.6555 60.4137 21.566 60.4137 16.5737C60.4137 11.5379 64.5141 7.42657 69.5281 7.42657C74.5422 7.42657 78.6535 11.5379 78.6535 16.5737C78.6535 21.566 74.5422 25.6555 69.5173 25.6555ZM69.5173 22.088C72.5844 22.088 75.086 19.5973 75.086 16.5519C75.086 13.4848 72.5844 10.9832 69.5173 10.9832C66.461 10.9832 63.9703 13.4848 63.9703 16.5519C63.9703 19.5973 66.461 22.088 69.5173 22.088ZM91.5834 25.6555C86.5259 25.6555 82.4146 21.4898 82.4146 16.5628C82.4146 11.614 86.5803 7.42657 91.5182 7.42657C93.8022 7.4592 95.8253 8.36195 97.6634 10.1348L95.6295 12.9083C94.4331 11.7337 92.9974 11.0158 91.4855 11.0158C88.6685 11.0158 85.9821 13.5174 85.9821 16.5846C85.9821 19.7061 88.7664 22.1207 91.4747 22.1207C93.0844 22.1207 94.4766 21.2614 95.6404 20.1194L97.6634 22.969C96.1189 24.5026 94.2373 25.6555 91.5834 25.6555ZM108.483 25.699C104.753 25.699 101.718 22.8059 101.718 18.836V7.7855H105.264V18.8251C105.264 20.7394 106.776 22.1316 108.472 22.1316C110.169 22.1316 111.703 20.7285 111.703 18.8251V7.7855H115.248V18.836C115.248 22.8059 112.214 25.699 108.483 25.699ZM133.791 25.3184H129.484L123.904 17.0305V25.3184H120.38L120.369 7.7855H126.09C129.364 7.7855 132.05 10.3088 132.05 13.463C132.05 15.7144 130.691 17.6831 128.809 18.3465L133.791 25.3184ZM123.893 11.2768V15.6818L126.155 15.6927C127.352 15.7036 128.418 14.7356 128.418 13.4848C128.418 12.234 127.341 11.2768 126.155 11.2768H123.893ZM147.819 7.7855H151.593L143.392 25.7534H143.262L135.094 7.7855H138.824L143.316 17.9659L147.819 7.7855ZM166.155 11.2551H159.107V14.6812H165.154V18.1943H159.107V21.8161H166.155V25.3184H155.583V7.7855H166.155V11.2551Z"/>
</mask>
<path d="M11.7154 25.6555C6.65781 25.6555 2.54651 21.4898 2.54651 16.5628C2.54651 11.614 6.7122 7.42657 11.6501 7.42657C13.9342 7.4592 15.9572 8.36195 17.7953 10.1348L15.7614 12.9083C14.565 11.7337 13.1293 11.0158 11.6175 11.0158C8.80048 11.0158 6.11399 13.5174 6.11399 16.5846C6.11399 19.7061 8.89836 22.1207 11.6066 22.1207C13.2163 22.1207 14.6085 21.2614 15.7723 20.1194L17.7953 22.969C16.2509 24.5026 14.3692 25.6555 11.7154 25.6555ZM29.5832 25.6555C24.5801 25.6555 20.4796 21.566 20.4796 16.5737C20.4796 11.5379 24.5801 7.42657 29.5941 7.42657C34.6082 7.42657 38.7195 11.5379 38.7195 16.5737C38.7195 21.566 34.6082 25.6555 29.5832 25.6555ZM29.5832 22.088C32.6504 22.088 35.152 19.5973 35.152 16.5519C35.152 13.4848 32.6504 10.9832 29.5832 10.9832C26.5269 10.9832 24.0362 13.4848 24.0362 16.5519C24.0362 19.5973 26.5269 22.088 29.5832 22.088ZM51.6494 25.6555C46.5918 25.6555 42.4805 21.4898 42.4805 16.5628C42.4805 11.614 46.6462 7.42657 51.5841 7.42657C53.8682 7.4592 55.8912 8.36195 57.7293 10.1348L55.6954 12.9083C54.499 11.7337 53.0633 11.0158 51.5515 11.0158C48.7345 11.0158 46.048 13.5174 46.048 16.5846C46.048 19.7061 48.8324 22.1207 51.5406 22.1207C53.1504 22.1207 54.5425 21.2614 55.7063 20.1194L57.7293 22.969C56.1849 24.5026 54.3033 25.6555 51.6494 25.6555ZM69.5173 25.6555C64.5141 25.6555 60.4137 21.566 60.4137 16.5737C60.4137 11.5379 64.5141 7.42657 69.5281 7.42657C74.5422 7.42657 78.6535 11.5379 78.6535 16.5737C78.6535 21.566 74.5422 25.6555 69.5173 25.6555ZM69.5173 22.088C72.5844 22.088 75.086 19.5973 75.086 16.5519C75.086 13.4848 72.5844 10.9832 69.5173 10.9832C66.461 10.9832 63.9703 13.4848 63.9703 16.5519C63.9703 19.5973 66.461 22.088 69.5173 22.088ZM91.5834 25.6555C86.5259 25.6555 82.4146 21.4898 82.4146 16.5628C82.4146 11.614 86.5803 7.42657 91.5182 7.42657C93.8022 7.4592 95.8253 8.36195 97.6634 10.1348L95.6295 12.9083C94.4331 11.7337 92.9974 11.0158 91.4855 11.0158C88.6685 11.0158 85.9821 13.5174 85.9821 16.5846C85.9821 19.7061 88.7664 22.1207 91.4747 22.1207C93.0844 22.1207 94.4766 21.2614 95.6404 20.1194L97.6634 22.969C96.1189 24.5026 94.2373 25.6555 91.5834 25.6555ZM108.483 25.699C104.753 25.699 101.718 22.8059 101.718 18.836V7.7855H105.264V18.8251C105.264 20.7394 106.776 22.1316 108.472 22.1316C110.169 22.1316 111.703 20.7285 111.703 18.8251V7.7855H115.248V18.836C115.248 22.8059 112.214 25.699 108.483 25.699ZM133.791 25.3184H129.484L123.904 17.0305V25.3184H120.38L120.369 7.7855H126.09C129.364 7.7855 132.05 10.3088 132.05 13.463C132.05 15.7144 130.691 17.6831 128.809 18.3465L133.791 25.3184ZM123.893 11.2768V15.6818L126.155 15.6927C127.352 15.7036 128.418 14.7356 128.418 13.4848C128.418 12.234 127.341 11.2768 126.155 11.2768H123.893ZM147.819 7.7855H151.593L143.392 25.7534H143.262L135.094 7.7855H138.824L143.316 17.9659L147.819 7.7855ZM166.155 11.2551H159.107V14.6812H165.154V18.1943H159.107V21.8161H166.155V25.3184H155.583V7.7855H166.155V11.2551Z" fill="white" fill-opacity="0.1"/>
<path d="M11.6501 7.42657L11.653 7.22407H11.6501V7.42657ZM17.7953 10.1348L17.9586 10.2546L18.0632 10.1119L17.9359 9.98906L17.7953 10.1348ZM15.7614 12.9083L15.6195 13.0528L15.7864 13.2166L15.9247 13.0281L15.7614 12.9083ZM15.7723 20.1194L15.9374 20.0022L15.7999 19.8086L15.6305 19.9749L15.7723 20.1194ZM17.7953 22.969L17.938 23.1127L18.0598 22.9918L17.9604 22.8518L17.7953 22.969ZM11.7154 25.453C6.76934 25.453 2.74901 21.3777 2.74901 16.5628H2.34401C2.34401 21.602 6.54629 25.858 11.7154 25.858V25.453ZM2.74901 16.5628C2.74901 11.7251 6.82481 7.62907 11.6501 7.62907V7.22407C6.59958 7.22407 2.34401 11.503 2.34401 16.5628H2.74901ZM11.6472 7.62905C13.8727 7.66085 15.8482 8.53812 17.6547 10.2806L17.9359 9.98906C16.0662 8.18578 13.9956 7.25756 11.653 7.22409L11.6472 7.62905ZM17.632 10.0151L15.5981 12.7886L15.9247 13.0281L17.9586 10.2546L17.632 10.0151ZM15.9033 12.7638C14.6799 11.5627 13.1959 10.8133 11.6175 10.8133V11.2183C13.0627 11.2183 14.4501 11.9046 15.6195 13.0528L15.9033 12.7638ZM11.6175 10.8133C8.69146 10.8133 5.91149 13.4028 5.91149 16.5846H6.31649C6.31649 13.632 8.90949 11.2183 11.6175 11.2183V10.8133ZM5.91149 16.5846C5.91149 19.8255 8.79428 22.3232 11.6066 22.3232V21.9182C9.00245 21.9182 6.31649 19.5867 6.31649 16.5846H5.91149ZM11.6066 22.3232C13.2921 22.3232 14.7326 21.4234 15.9141 20.2639L15.6305 19.9749C14.4844 21.0995 13.1406 21.9182 11.6066 21.9182V22.3232ZM15.6072 20.2366L17.6302 23.0863L17.9604 22.8518L15.9374 20.0022L15.6072 20.2366ZM17.6526 22.8253C16.1332 24.3341 14.2999 25.453 11.7154 25.453V25.858C14.4385 25.858 16.3686 24.6711 17.938 23.1127L17.6526 22.8253ZM29.5832 25.453C24.6914 25.453 20.6821 21.4537 20.6821 16.5737H20.2771C20.2771 21.6783 24.4687 25.858 29.5832 25.858V25.453ZM20.6821 16.5737C20.6821 11.6491 24.6925 7.62907 29.5941 7.62907V7.22407C24.4676 7.22407 20.2771 11.4267 20.2771 16.5737H20.6821ZM29.5941 7.62907C34.496 7.62907 38.517 11.6494 38.517 16.5737H38.922C38.922 11.4264 34.7203 7.22407 29.5941 7.22407V7.62907ZM38.517 16.5737C38.517 21.453 34.4974 25.453 29.5832 25.453V25.858C34.7189 25.858 38.922 21.6789 38.922 16.5737H38.517ZM29.5832 22.2905C32.7612 22.2905 35.3545 19.7102 35.3545 16.5519H34.9495C34.9495 19.4845 32.5396 21.8855 29.5832 21.8855V22.2905ZM35.3545 16.5519C35.3545 13.3729 32.7622 10.7807 29.5832 10.7807V11.1857C32.5386 11.1857 34.9495 13.5966 34.9495 16.5519H35.3545ZM29.5832 10.7807C26.4143 10.7807 23.8337 13.3737 23.8337 16.5519H24.2387C24.2387 13.5958 26.6396 11.1857 29.5832 11.1857V10.7807ZM23.8337 16.5519C23.8337 19.7094 26.4154 22.2905 29.5832 22.2905V21.8855C26.6385 21.8855 24.2387 19.4852 24.2387 16.5519H23.8337ZM51.5841 7.42657L51.587 7.22407H51.5841V7.42657ZM57.7293 10.1348L57.8926 10.2546L57.9973 10.1119L57.8699 9.98906L57.7293 10.1348ZM55.6954 12.9083L55.5536 13.0528L55.7204 13.2166L55.8587 13.0281L55.6954 12.9083ZM55.7063 20.1194L55.8714 20.0022L55.734 19.8086L55.5645 19.9749L55.7063 20.1194ZM57.7293 22.969L57.872 23.1127L57.9938 22.9918L57.8945 22.8518L57.7293 22.969ZM51.6494 25.453C46.7034 25.453 42.683 21.3777 42.683 16.5628H42.278C42.278 21.602 46.4803 25.858 51.6494 25.858V25.453ZM42.683 16.5628C42.683 11.7251 46.7588 7.62907 51.5841 7.62907V7.22407C46.5336 7.22407 42.278 11.503 42.278 16.5628H42.683ZM51.5813 7.62905C53.8067 7.66085 55.7822 8.53812 57.5888 10.2806L57.8699 9.98906C56.0003 8.18578 53.9297 7.25756 51.587 7.22409L51.5813 7.62905ZM57.566 10.0151L55.5321 12.7886L55.8587 13.0281L57.8926 10.2546L57.566 10.0151ZM55.8373 12.7638C54.614 11.5627 53.13 10.8133 51.5515 10.8133V11.2183C52.9967 11.2183 54.3841 11.9046 55.5536 13.0528L55.8373 12.7638ZM51.5515 10.8133C48.6255 10.8133 45.8455 13.4028 45.8455 16.5846H46.2505C46.2505 13.632 48.8435 11.2183 51.5515 11.2183V10.8133ZM45.8455 16.5846C45.8455 19.8255 48.7283 22.3232 51.5406 22.3232V21.9182C48.9365 21.9182 46.2505 19.5867 46.2505 16.5846H45.8455ZM51.5406 22.3232C53.2261 22.3232 54.6666 21.4234 55.8482 20.2639L55.5645 19.9749C54.4185 21.0995 53.0746 21.9182 51.5406 21.9182V22.3232ZM55.5412 20.2366L57.5642 23.0863L57.8945 22.8518L55.8714 20.0022L55.5412 20.2366ZM57.5867 22.8253C56.0672 24.3341 54.234 25.453 51.6494 25.453V25.858C54.3726 25.858 56.3026 24.6711 57.872 23.1127L57.5867 22.8253ZM69.5173 25.453C64.6254 25.453 60.6162 21.4537 60.6162 16.5737H60.2112C60.2112 21.6783 64.4027 25.858 69.5173 25.858V25.453ZM60.6162 16.5737C60.6162 11.6491 64.6265 7.62907 69.5281 7.62907V7.22407C64.4016 7.22407 60.2112 11.4267 60.2112 16.5737H60.6162ZM69.5281 7.62907C74.43 7.62907 78.451 11.6494 78.451 16.5737H78.856C78.856 11.4264 74.6543 7.22407 69.5281 7.22407V7.62907ZM78.451 16.5737C78.451 21.453 74.4314 25.453 69.5173 25.453V25.858C74.6529 25.858 78.856 21.6789 78.856 16.5737H78.451ZM69.5173 22.2905C72.6952 22.2905 75.2885 19.7102 75.2885 16.5519H74.8835C74.8835 19.4845 72.4736 21.8855 69.5173 21.8855V22.2905ZM75.2885 16.5519C75.2885 13.3729 72.6963 10.7807 69.5173 10.7807V11.1857C72.4726 11.1857 74.8835 13.5966 74.8835 16.5519H75.2885ZM69.5173 10.7807C66.3484 10.7807 63.7678 13.3737 63.7678 16.5519H64.1728C64.1728 13.5958 66.5736 11.1857 69.5173 11.1857V10.7807ZM63.7678 16.5519C63.7678 19.7094 66.3494 22.2905 69.5173 22.2905V21.8855C66.5725 21.8855 64.1728 19.4852 64.1728 16.5519H63.7678ZM91.5182 7.42657L91.5211 7.22407H91.5182V7.42657ZM97.6634 10.1348L97.8267 10.2546L97.9313 10.1119L97.804 9.98906L97.6634 10.1348ZM95.6295 12.9083L95.4876 13.0528L95.6545 13.2166L95.7928 13.0281L95.6295 12.9083ZM95.6404 20.1194L95.8055 20.0022L95.668 19.8086L95.4985 19.9749L95.6404 20.1194ZM97.6634 22.969L97.8061 23.1127L97.9279 22.9918L97.8285 22.8518L97.6634 22.969ZM91.5834 25.453C86.6374 25.453 82.6171 21.3777 82.6171 16.5628H82.2121C82.2121 21.602 86.4144 25.858 91.5834 25.858V25.453ZM82.6171 16.5628C82.6171 11.7251 86.6929 7.62907 91.5182 7.62907V7.22407C86.4676 7.22407 82.2121 11.503 82.2121 16.5628H82.6171ZM91.5153 7.62905C93.7408 7.66085 95.7162 8.53812 97.5228 10.2806L97.804 9.98906C95.9343 8.18578 93.8637 7.25756 91.5211 7.22409L91.5153 7.62905ZM97.5001 10.0151L95.4662 12.7886L95.7928 13.0281L97.8267 10.2546L97.5001 10.0151ZM95.7713 12.7638C94.548 11.5627 93.064 10.8133 91.4855 10.8133V11.2183C92.9308 11.2183 94.3181 11.9046 95.4876 13.0528L95.7713 12.7638ZM91.4855 10.8133C88.5595 10.8133 85.7796 13.4028 85.7796 16.5846H86.1846C86.1846 13.632 88.7776 11.2183 91.4855 11.2183V10.8133ZM85.7796 16.5846C85.7796 19.8255 88.6623 22.3232 91.4747 22.3232V21.9182C88.8705 21.9182 86.1846 19.5867 86.1846 16.5846H85.7796ZM91.4747 22.3232C93.1602 22.3232 94.6006 21.4234 95.7822 20.2639L95.4985 19.9749C94.3525 21.0995 93.0086 21.9182 91.4747 21.9182V22.3232ZM95.4752 20.2366L97.4983 23.0863L97.8285 22.8518L95.8055 20.0022L95.4752 20.2366ZM97.5207 22.8253C96.0012 24.3341 94.168 25.453 91.5834 25.453V25.858C94.3066 25.858 96.2366 24.6711 97.8061 23.1127L97.5207 22.8253ZM101.718 7.7855V7.583H101.516V7.7855H101.718ZM105.264 7.7855H105.466V7.583H105.264V7.7855ZM111.703 7.7855V7.583H111.5V7.7855H111.703ZM115.248 7.7855H115.451V7.583H115.248V7.7855ZM108.483 25.4965C104.864 25.4965 101.921 22.6932 101.921 18.836H101.516C101.516 22.9186 104.642 25.9015 108.483 25.9015V25.4965ZM101.921 18.836V7.7855H101.516V18.836H101.921ZM101.718 7.988H105.264V7.583H101.718V7.988ZM105.061 7.7855V18.8251H105.466V7.7855H105.061ZM105.061 18.8251C105.061 20.8521 106.665 22.3341 108.472 22.3341V21.9291C106.887 21.9291 105.466 20.6266 105.466 18.8251H105.061ZM108.472 22.3341C110.279 22.3341 111.905 20.8425 111.905 18.8251H111.5C111.5 20.6145 110.059 21.9291 108.472 21.9291V22.3341ZM111.905 18.8251V7.7855H111.5V18.8251H111.905ZM111.703 7.988H115.248V7.583H111.703V7.988ZM115.046 7.7855V18.836H115.451V7.7855H115.046ZM115.046 18.836C115.046 22.6932 112.103 25.4965 108.483 25.4965V25.9015C112.325 25.9015 115.451 22.9186 115.451 18.836H115.046ZM133.791 25.3184V25.5209H134.184L133.955 25.2006L133.791 25.3184ZM129.484 25.3184L129.316 25.4314L129.376 25.5209H129.484V25.3184ZM123.904 17.0305L124.072 16.9174L123.701 16.3671V17.0305H123.904ZM123.904 25.3184V25.5209H124.106V25.3184H123.904ZM120.38 25.3184L120.177 25.3185L120.178 25.5209H120.38V25.3184ZM120.369 7.7855V7.583H120.166L120.167 7.78562L120.369 7.7855ZM128.809 18.3465L128.742 18.1556L128.488 18.2451L128.644 18.4643L128.809 18.3465ZM123.893 11.2768V11.0743H123.691V11.2768H123.893ZM123.893 15.6818H123.691V15.8833L123.892 15.8843L123.893 15.6818ZM126.155 15.6927L126.157 15.4902L126.156 15.4902L126.155 15.6927ZM133.791 25.1159H129.484V25.5209H133.791V25.1159ZM129.652 25.2053L124.072 16.9174L123.736 17.1436L129.316 25.4314L129.652 25.2053ZM123.701 17.0305V25.3184H124.106V17.0305H123.701ZM123.904 25.1159H120.38V25.5209H123.904V25.1159ZM120.582 25.3182L120.572 7.78537L120.167 7.78562L120.177 25.3185L120.582 25.3182ZM120.369 7.988H126.09V7.583H120.369V7.988ZM126.09 7.988C129.262 7.988 131.848 10.4306 131.848 13.463H132.253C132.253 10.187 129.466 7.583 126.09 7.583V7.988ZM131.848 13.463C131.848 15.6368 130.535 17.5233 128.742 18.1556L128.877 18.5375C130.847 17.8428 132.253 15.792 132.253 13.463H131.848ZM128.644 18.4643L133.626 25.4361L133.955 25.2006L128.974 18.2288L128.644 18.4643ZM123.691 11.2768V15.6818H124.096V11.2768H123.691ZM123.892 15.8843L126.154 15.8952L126.156 15.4902L123.894 15.4793L123.892 15.8843ZM126.154 15.8952C127.455 15.907 128.62 14.8553 128.62 13.4848H128.215C128.215 14.6158 127.248 15.5001 126.157 15.4902L126.154 15.8952ZM128.62 13.4848C128.62 12.1121 127.442 11.0743 126.155 11.0743V11.4793C127.239 11.4793 128.215 12.3559 128.215 13.4848H128.62ZM126.155 11.0743H123.893V11.4793H126.155V11.0743ZM147.819 7.7855V7.583H147.687L147.634 7.70358L147.819 7.7855ZM151.593 7.7855L151.777 7.86958L151.908 7.583H151.593V7.7855ZM143.392 25.7534V25.9559H143.523L143.577 25.8375L143.392 25.7534ZM143.262 25.7534L143.078 25.8372L143.131 25.9559H143.262V25.7534ZM135.094 7.7855V7.583H134.779L134.909 7.8693L135.094 7.7855ZM138.824 7.7855L139.01 7.70375L138.956 7.583H138.824V7.7855ZM143.316 17.9659L143.131 18.0476L143.316 18.467L143.501 18.0478L143.316 17.9659ZM147.819 7.988H151.593V7.583H147.819V7.988ZM151.409 7.70142L143.208 25.6693L143.577 25.8375L151.777 7.86958L151.409 7.70142ZM143.392 25.5509H143.262V25.9559H143.392V25.5509ZM143.446 25.6696L135.278 7.70169L134.909 7.8693L143.078 25.8372L143.446 25.6696ZM135.094 7.988H138.824V7.583H135.094V7.988ZM138.639 7.86724L143.131 18.0476L143.502 17.8841L139.01 7.70375L138.639 7.86724ZM143.501 18.0478L148.004 7.86741L147.634 7.70358L143.131 17.884L143.501 18.0478ZM166.155 11.2551V11.4576H166.357V11.2551H166.155ZM159.107 11.2551V11.0526H158.904V11.2551H159.107ZM159.107 14.6812H158.904V14.8837H159.107V14.6812ZM165.154 14.6812H165.357V14.4787H165.154V14.6812ZM165.154 18.1943V18.3968H165.357V18.1943H165.154ZM159.107 18.1943V17.9918H158.904V18.1943H159.107ZM159.107 21.8161H158.904V22.0186H159.107V21.8161ZM166.155 21.8161H166.357V21.6136H166.155V21.8161ZM166.155 25.3184V25.5209H166.357V25.3184H166.155ZM155.583 25.3184H155.38V25.5209H155.583V25.3184ZM155.583 7.7855V7.583H155.38V7.7855H155.583ZM166.155 7.7855H166.357V7.583H166.155V7.7855ZM166.155 11.0526H159.107V11.4576H166.155V11.0526ZM158.904 11.2551V14.6812H159.309V11.2551H158.904ZM159.107 14.8837H165.154V14.4787H159.107V14.8837ZM164.952 14.6812V18.1943H165.357V14.6812H164.952ZM165.154 17.9918H159.107V18.3968H165.154V17.9918ZM158.904 18.1943V21.8161H159.309V18.1943H158.904ZM159.107 22.0186H166.155V21.6136H159.107V22.0186ZM165.952 21.8161V25.3184H166.357V21.8161H165.952ZM166.155 25.1159H155.583V25.5209H166.155V25.1159ZM155.785 25.3184V7.7855H155.38V25.3184H155.785ZM155.583 7.988H166.155V7.583H155.583V7.988ZM165.952 7.7855V11.2551H166.357V7.7855H165.952Z" fill="white" fill-opacity="0.2" mask="url(#path-1-outside-1_1171_35188)"/>
<path d="M10.7037 24.846C5.64609 24.846 1.53479 20.6803 1.53479 15.7532C1.53479 10.8044 5.70048 6.617 10.6384 6.617C12.9224 6.64963 14.9455 7.55238 16.7836 9.32524L14.7497 12.0987C13.5533 10.9241 12.1176 10.2062 10.6058 10.2062C7.78876 10.2062 5.10227 12.7078 5.10227 15.775C5.10227 18.8965 7.88665 21.3111 10.5949 21.3111C12.2046 21.3111 13.5968 20.4519 14.7606 19.3098L16.7836 22.1595C15.2391 23.6931 13.3575 24.846 10.7037 24.846ZM28.5715 24.846C23.5683 24.846 19.4679 20.7564 19.4679 15.7641C19.4679 10.7283 23.5683 6.617 28.5824 6.617C33.5964 6.617 37.7077 10.7283 37.7077 15.7641C37.7077 20.7564 33.5964 24.846 28.5715 24.846ZM28.5715 21.2785C31.6387 21.2785 34.1403 18.7878 34.1403 15.7424C34.1403 12.6752 31.6387 10.1736 28.5715 10.1736C25.5152 10.1736 23.0245 12.6752 23.0245 15.7424C23.0245 18.7878 25.5152 21.2785 28.5715 21.2785ZM50.6377 24.846C45.5801 24.846 41.4688 20.6803 41.4688 15.7532C41.4688 10.8044 45.6345 6.617 50.5724 6.617C52.8565 6.64963 54.8795 7.55238 56.7176 9.32524L54.6837 12.0987C53.4873 10.9241 52.0516 10.2062 50.5398 10.2062C47.7228 10.2062 45.0363 12.7078 45.0363 15.775C45.0363 18.8965 47.8207 21.3111 50.5289 21.3111C52.1386 21.3111 53.5308 20.4519 54.6946 19.3098L56.7176 22.1595C55.1732 23.6931 53.2915 24.846 50.6377 24.846ZM68.5055 24.846C63.5024 24.846 59.4019 20.7564 59.4019 15.7641C59.4019 10.7283 63.5024 6.617 68.5164 6.617C73.5305 6.617 77.6418 10.7283 77.6418 15.7641C77.6418 20.7564 73.5305 24.846 68.5055 24.846ZM68.5055 21.2785C71.5727 21.2785 74.0743 18.7878 74.0743 15.7424C74.0743 12.6752 71.5727 10.1736 68.5055 10.1736C65.4493 10.1736 62.9585 12.6752 62.9585 15.7424C62.9585 18.7878 65.4493 21.2785 68.5055 21.2785ZM90.5717 24.846C85.5142 24.846 81.4029 20.6803 81.4029 15.7532C81.4029 10.8044 85.5685 6.617 90.5065 6.617C92.7905 6.64963 94.8135 7.55238 96.6517 9.32524L94.6178 12.0987C93.4213 10.9241 91.9857 10.2062 90.4738 10.2062C87.6568 10.2062 84.9703 12.7078 84.9703 15.775C84.9703 18.8965 87.7547 21.3111 90.463 21.3111C92.0727 21.3111 93.4649 20.4519 94.6286 19.3098L96.6517 22.1595C95.1072 23.6931 93.2256 24.846 90.5717 24.846ZM107.472 24.8895C103.741 24.8895 100.706 21.9963 100.706 18.0264V6.97593H104.252V18.0155C104.252 19.9298 105.764 21.322 107.461 21.322C109.157 21.322 110.691 19.9189 110.691 18.0155V6.97593H114.237V18.0264C114.237 21.9963 111.202 24.8895 107.472 24.8895ZM132.779 24.5088H128.472L122.892 16.2209V24.5088H119.368L119.357 6.97593H125.078C128.352 6.97593 131.039 9.49927 131.039 12.6534C131.039 14.9049 129.679 16.8735 127.798 17.537L132.779 24.5088ZM122.881 10.4673V14.8722L125.144 14.8831C126.34 14.894 127.406 13.926 127.406 12.6752C127.406 11.4244 126.329 10.4673 125.144 10.4673H122.881ZM146.807 6.97593H150.582L142.381 24.9438H142.25L134.082 6.97593H137.813L142.305 17.1563L146.807 6.97593ZM165.143 10.4455H158.095V13.8716H164.142V17.3847H158.095V21.0066H165.143V24.5088H154.571V6.97593H165.143V10.4455Z" fill="white"/>
</svg>
